<mxfile host="app.diagrams.net" modified="2023-10-26T20:02:57.085Z" agent="Mozilla/5.0 (Windows NT 10.0; Win64; x64) AppleWebKit/537.36 (KHTML, like Gecko) Chrome/117.0.0.0 Safari/537.36" version="22.0.8" etag="Oocn-ihBCvtr-1kFK3O_" type="github">
  <diagram name="Strona-1" id="h-Ulo7QIeMsKNbrolWw8">
    <mxGraphModel>
      <root>
        <mxCell id="0" />
        <mxCell id="1" parent="0" />
      </root>
    </mxGraphModel>
  </diagram>
</mxfile>
